:SAMPLES-PER-SECOND 30
:FULLY-SPECIFIED
:DEGREES
372
root  47.5333 33.108 36.054 -169.013 -36.7145 177.019
RightUpLeg  -19.6278 -13.0986 -19.7493
RightLeg  12.6181 -5.51098 -0.863136
RightFoot  -0.710442 0.00726986 0.196429
RightToes  -38.9462 -0.21012 -0.309092
Spine  4.74345 0.204594 -1.21062
Spine1  8.9614 0.954944 -3.59482
HEad  13.2477 -22.7019 21.4863
LeftShoulder1  0 -2.42657e-020 -4.95415e-022
LeftArm  -19.6102 24.3455 -79.6297
LeftForeArm  46.3879 -36.736 -7.54065
LeftHand  -0.476035 -8.87327 5.76404
RightShoulder  0 2.42657e-020 1.07489e-018
RightArm  -38.1676 -8.33249 82.228
RightForeArm  46.9924 27.4583 5.23211
RightHand  -1.63382 19.2617 -9.23927
LeftUpLeg  -2.27311 13.3331 3.80866
LeftLeg  8.57649 -6.09661 -0.522083
LeftFoot  -2.92661 0.00414371 0.162203
LeftToes  -23.2199 9.37529e-007 1.1992e-007
373
root  48.1844 32.9535 35.2499 -168.946 -35.4764 176.827
RightUpLeg  -20.4576 -15.6851 -18.6798
RightLeg  12.2453 -5.52926 -0.829165
RightFoot  -1.44537 -0.00136458 0.269499
RightToes  -36.9544 -0.194623 -0.29728
Spine  4.92235 -0.186425 -1.02526
Spine1  9.34623 0.18083 -3.28932
HEad  11.331 -20.0535 20.5215
LeftShoulder1  0 -2.42657e-020 -4.95415e-022
LeftArm  -21.4609 22.6913 -80.6171
LeftForeArm  46.8343 -32.8586 -6.51432
LeftHand  -0.388481 -9.07378 4.52634
RightShoulder  0 2.42657e-020 1.07489e-018
RightArm  -35.6487 -7.40806 83.367
RightForeArm  46.826 30.1053 5.84403
RightHand  -1.72664 19.2393 -9.79451
LeftUpLeg  -1.21267 13.2533 5.21072
LeftLeg  7.92885 -4.81473 -0.358034
LeftFoot  -2.25627 0.000971986 0.0493498
LeftToes  -25.5876 9.37529e-007 1.1992e-007
374
root  48.8967 32.7766 34.3447 -169.068 -34.5984 176.804
RightUpLeg  -21.258 -16.2868 -17.2402
RightLeg  13.6249 -5.58618 -0.975748
RightFoot  0.425399 0.00108302 0.0856715
RightToes  -41.0238 -0.226713 -0.320832
Spine  5.16167 -0.653876 -0.749929
Spine1  9.86949 -0.783212 -2.76531
HEad  9.03648 -14.9395 18.6179
LeftShoulder1  0 -2.42657e-020 -4.95415e-022
LeftArm  -22.2325 20.5157 -81.0755
LeftForeArm  46.5907 -28.7516 -5.52503
LeftHand  -0.29105 -8.99468 3.33167
RightShoulder  0 2.42657e-020 1.07489e-018
RightArm  -33.8782 -7.14468 84.5813
RightForeArm  47.0113 32.7598 6.49223
RightHand  -1.86862 19.064 -10.728
LeftUpLeg  -0.446288 13.4772 7.05713
LeftLeg  8.08081 -4.04344 -0.311725
LeftFoot  -1.49178 -0.000327527 -0.0251668
LeftToes  -29.57 9.37529e-007 1.1992e-007
375
root  49.6964 32.6042 33.3868 -169.671 -33.9173 177.748
RightUpLeg  -22.7643 -14.885 -15.0952
RightLeg  16.442 -4.53922 -1.02593
RightFoot  4.49892 0.0240832 -0.235514
RightToes  -44.797 -0.257893 -0.340586
Spine  5.36147 -0.961768 -0.137782
Spine1  10.3158 -1.49363 -1.54411
HEad  6.69934 -9.30341 16.0257
LeftShoulder1  0 -2.42657e-020 -4.95415e-022
LeftArm  -22.3455 17.8974 -81.6363
LeftForeArm  47.012 -24.5561 -4.5934
LeftHand  -0.229757 -8.99363 2.55279
RightShoulder  0 2.42657e-020 1.07489e-018
RightArm  -32.5842 -7.46364 85.1413
RightForeArm  46.401 34.8929 7.04405
RightHand  -2.05177 19.2329 -11.7
LeftUpLeg  -0.315667 12.639 9.71226
LeftLeg  9.34793 -2.23998 -0.223264
LeftFoot  -1.17744 -0.00086427 -0.0841187
LeftToes  -32.4721 9.37529e-007 1.1992e-007
376
root  50.5195 32.4942 32.374 -171.064 -33.3754 179.901
RightUpLeg  -25.2746 -15.0255 -11.3303
RightLeg  21.6024 -1.16793 -0.379746
RightFoot  5.45958 0.0177094 0.00612734
RightToes  -46.2678 -0.270388 -0.347722
Spine  5.55138 -1.05106 0.872572
Spine1  10.7408 -1.81697 0.465207
HEad  5.11483 -4.65651 12.511
LeftShoulder1  0 -2.42657e-020 -4.95415e-022
LeftArm  -23.193 15.6603 -82.8724
LeftForeArm  49.5014 -22.2474 -4.1047
LeftHand  -0.197206 -9.34081 2.04514
RightShoulder  0 2.42657e-020 1.07489e-018
RightArm  -31.3589 -8.00588 84.5975
RightForeArm  44.4057 35.9621 7.33459
RightHand  -2.13219 19.3362 -12.1017
LeftUpLeg  -0.136885 12.4694 13.5682
LeftLeg  10.9233 -1.07368 -0.137683
LeftFoot  -0.55695 0.000186123 -0.12911
LeftToes  -35.7606 9.37529e-007 1.1992e-007
377
root  51.2694 32.461 31.2887 -172.028 -33.5131 -178.795
RightUpLeg  -26.12 -17.0339 -8.26455
RightLeg  24.7809 0.794753 0.302356
RightFoot  6.70349 0.0101371 0.204439
RightToes  -47.6542 -0.282331 -0.354154
Spine  5.72142 -1.35262 1.71818
Spine1  11.1195 -2.55449 2.17161
HEad  4.34156 -0.792646 9.19649
LeftShoulder1  0 -2.42657e-020 -4.95415e-022
LeftArm  -23.3386 14.0979 -83.9419
LeftForeArm  50.545 -22.2173 -4.09667
LeftHand  -0.21105 -9.42957 2.1902
RightShoulder  0 2.42657e-020 1.07489e-018
RightArm  -29.3163 -8.63234 83.4065
RightForeArm  42.8402 37.1677 7.67077
RightHand  -2.08876 19.1044 -11.9995
LeftUpLeg  -0.00935932 12.3196 16.7896
LeftLeg  12.4056 -0.709787 -0.110349
LeftFoot  1.7227 0.00238739 -0.158803
LeftToes  -40.449 9.37529e-007 1.1992e-007
